<?xml version="1.0" standalone="no"?><svg xmlns="http://www.w3.org/2000/svg" viewBox="0 0 1440 320"><path fill="#1d1d1d" fill-opacity="1" d="M0,128L26.7,117.3C53.3,107,107,85,160,117.3C213.3,149,267,235,320,224C373.3,213,427,107,480,80C533.3,53,587,107,640,138.7C693.3,171,747,181,800,176C853.3,171,907,149,960,149.3C1013.3,149,1067,171,1120,192C1173.3,213,1227,235,1280,218.7C1333.3,203,1387,149,1413,122.7L1440,96L1440,320L1413.3,320C1386.7,320,1333,320,1280,320C1226.7,320,1173,320,1120,320C1066.7,320,1013,320,960,320C906.7,320,853,320,800,320C746.7,320,693,320,640,320C586.7,320,533,320,480,320C426.7,320,373,320,320,320C266.7,320,213,320,160,320C106.7,320,53,320,27,320L0,320Z"></path></svg>